<svg xmlns="http://www.w3.org/2000/svg" viewBox="0 0 128 128">
  <g transform="translate(5.9 5.9) scale(4.9)">
    <path
      fill-rule="evenodd"
      clip-rule="evenodd"
      d="M23.9017 12.7454C23.9513 14.8747 23.3446 16.9695 22.1617 18.7439C21.4481 19.8047 20.4942 20.6861 19.3838 21.3195C17.64 22.2964 15.5909 22.5673 13.5914 22.5673C10.2907 22.5368 7.03969 21.7431 4.0939 20.2511C1.76245 19.0758 -0.996362 16.4468 0.358244 13.5468C0.838605 12.513 1.77187 11.8205 2.70281 11.1296C3.03642 10.8821 3.36973 10.6348 3.6818 10.372C4.27739 9.8736 4.80217 9.30693 5.27464 8.69688C5.37392 8.79275 5.49564 8.86848 5.63531 8.91503C6.1054 9.07173 6.84366 9.34772 7.43895 10.3908C8.0642 11.4863 8.59961 13.5507 8.24559 17.4636C8.20484 17.9139 8.48592 18.3311 8.91867 18.4624C9.35138 18.5937 9.81687 18.403 10.0333 18.006L10.0352 18.0026L10.0425 17.9892L10.0731 17.934C10.1004 17.8848 10.1413 17.8117 10.1947 17.7176C10.3015 17.5295 10.4579 17.2581 10.6546 16.9288C11.0487 16.269 11.6011 15.3817 12.2371 14.4664C12.8754 13.5477 13.5848 12.6197 14.2915 11.8688C15.0211 11.0935 15.6568 10.6067 16.1362 10.4336C16.6806 10.2371 16.9274 10.2992 17.0417 10.3487C17.1907 10.4133 17.3546 10.5598 17.591 10.8972C17.6754 11.0176 17.7528 11.1374 17.8407 11.2736L17.8408 11.2737C17.8767 11.3292 17.9143 11.3874 17.9548 11.4495C18.0857 11.6499 18.2393 11.8776 18.4177 12.0939C18.7813 12.5346 19.297 12.988 20.0656 13.1426C21.2695 13.3848 22.6723 13.0129 23.8923 12.4861C23.8964 12.5725 23.8995 12.6589 23.9017 12.7454ZM23.6284 10.5072C23.0693 7.94595 21.7086 5.55695 19.9676 3.58754C18.9106 2.29017 17.5713 1.24846 16.0564 0.534912C14.5225 -0.163378 12.7672 -0.178641 11.2218 0.492938C9.33548 1.43435 8.3062 3.42716 7.31882 5.33888C7.22563 5.5193 7.13282 5.69899 7.03969 5.87702C6.81551 6.30198 6.58138 6.72396 6.33283 7.13697C7.02508 7.37593 8.20853 7.89012 9.09598 9.44509C9.69302 10.4912 10.1236 11.9514 10.2369 14.0149C10.3762 13.8058 10.5209 13.5927 10.6702 13.3778C11.336 12.4197 12.1056 11.4076 12.9021 10.5612C13.6757 9.73925 14.5672 8.97163 15.4883 8.6391C16.3443 8.33005 17.1158 8.30134 17.8006 8.59821C18.4506 8.88004 18.8665 9.39288 19.1533 9.80204C19.2602 9.95446 19.367 10.1199 19.4615 10.2663L19.4617 10.2665C19.4934 10.3157 19.5238 10.3627 19.5523 10.4064C19.6752 10.5945 19.7815 10.7489 19.8895 10.8799C20.0989 11.1337 20.2624 11.2361 20.442 11.2722C21.0913 11.4028 22.0956 11.1986 23.247 10.6859C23.3746 10.629 23.5019 10.5693 23.6284 10.5072Z"
      fill="#D2CEFD"
    />
    <path
      fill-rule="evenodd"
      clip-rule="evenodd"
      d="M13.5418 23.857C13.1908 23.9295 12.8359 23.9753 12.481 23.9944C10.928 24.0516 9.38641 23.67 8.03944 22.8916C6.39865 21.8995 5.00589 20.5487 3.96799 18.9385C2.28905 16.5383 1.35036 13.7032 1.2626 10.7765C1.19391 7.83452 2.2776 4.98412 4.2847 2.83202C5.40655 1.62623 6.88707 0.813463 8.50497 0.5082C10.9061 0.121973 13.2725 1.14833 15.5177 2.12214C15.6238 2.16814 15.7296 2.21403 15.8351 2.25965C16.1905 2.41321 16.5474 2.56456 16.9045 2.71598C18.748 3.4977 20.5961 4.28134 22.2647 5.38096C23.3904 6.12123 24.4779 7.08662 24.8289 8.38399C24.9533 8.84405 24.9761 9.31015 24.9224 9.77266C24.4011 10.11 23.8279 10.4271 23.247 10.6859C22.0956 11.1986 21.0913 11.4028 20.442 11.2722C20.2624 11.2361 20.0989 11.1337 19.8895 10.8798C19.7815 10.7489 19.6752 10.5945 19.5523 10.4064C19.5238 10.3627 19.4934 10.3157 19.4617 10.2665L19.4616 10.2664C19.367 10.1199 19.2602 9.9545 19.1533 9.80204C18.8665 9.39288 18.4506 8.88003 17.8006 8.59821C17.1158 8.30134 16.3443 8.33005 15.4883 8.63909C14.5672 8.97163 13.6757 9.73925 12.9021 10.5612C12.1056 11.4076 11.3359 12.4197 10.6702 13.3778C10.5209 13.5927 10.3762 13.8058 10.2369 14.0149C10.1236 11.9514 9.69301 10.4912 9.09597 9.44509C8.16685 7.81709 6.91328 7.32992 6.23863 7.10504C5.73881 6.93844 5.19857 7.20856 5.03197 7.70837C4.86537 8.20819 5.13548 8.74842 5.6353 8.91503C6.10539 9.07173 6.84366 9.34772 7.43894 10.3908C8.06419 11.4863 8.59961 13.5506 8.24558 17.4636C8.20483 17.9139 8.48592 18.3311 8.91867 18.4624C9.35137 18.5937 9.81686 18.403 10.0333 18.006L10.0352 18.0026L10.0425 17.9892L10.0731 17.9339C10.1004 17.8848 10.1413 17.8116 10.1947 17.7176C10.3015 17.5295 10.4579 17.2581 10.6546 16.9288C11.0487 16.269 11.6011 15.3817 12.2371 14.4664C12.8754 13.5477 13.5848 12.6197 14.2915 11.8688C15.0211 11.0935 15.6568 10.6067 16.1362 10.4336C16.6806 10.2371 16.9274 10.2992 17.0417 10.3487C17.1906 10.4133 17.3546 10.5598 17.591 10.8971C17.6754 11.0176 17.7528 11.1374 17.8408 11.2737L17.8408 11.2737C17.8766 11.3292 17.9143 11.3874 17.9548 11.4495C18.0857 11.6499 18.2393 11.8776 18.4177 12.0939C18.7813 12.5346 19.297 12.988 20.0656 13.1426C21.2495 13.3808 22.6258 13.025 23.8314 12.5122C23.7272 12.674 23.619 12.8321 23.5087 12.9858C22.7757 14.0033 22.1185 15.0939 21.4601 16.1866C20.3703 17.9952 19.277 19.8095 17.8308 21.3081C16.6822 22.5596 15.1902 23.4449 13.5418 23.857Z"
      fill="#4D3DF7"
    />
  </g>

</svg>
